<svg id="Layer_1" data-name="Layer 1" xmlns="http://www.w3.org/2000/svg" xmlns:xlink="http://www.w3.org/1999/xlink" viewBox="0 0 1003.33 639.2"><defs><style>.cls-1{fill:none;}.cls-2{clip-path:url(#clip-path);}.cls-3{clip-path:url(#clip-path-2);}.cls-4{clip-path:url(#clip-path-3);}.cls-5{clip-path:url(#clip-path-4);}.cls-6{clip-path:url(#clip-path-5);}.cls-7{clip-path:url(#clip-path-6);}.cls-8{clip-path:url(#clip-path-7);}.cls-9{clip-path:url(#clip-path-8);}.cls-10{clip-path:url(#clip-path-9);}.cls-11{clip-path:url(#clip-path-10);}.cls-12{fill:#a182ba;}.cls-13{clip-path:url(#clip-path-11);}</style><clipPath id="clip-path" transform="translate(-190.6 -43.54)"><circle class="cls-1" cx="853.8" cy="149.63" r="95.71"/></clipPath><clipPath id="clip-path-2" transform="translate(-190.6 -43.54)"><circle class="cls-1" cx="996.48" cy="307.97" r="76.13"/></clipPath><clipPath id="clip-path-3" transform="translate(-190.6 -43.54)"><circle class="cls-1" cx="867.79" cy="458.23" r="92.67"/></clipPath><clipPath id="clip-path-4" transform="translate(-190.6 -43.54)"><circle class="cls-1" cx="506.41" cy="95.13" r="47.42"/></clipPath><clipPath id="clip-path-5" transform="translate(-190.6 -43.54)"><circle class="cls-1" cx="814.4" cy="612.29" r="51.22"/></clipPath><clipPath id="clip-path-6" transform="translate(-190.6 -43.54)"><circle class="cls-1" cx="621.17" cy="584.62" r="97.05"/></clipPath><clipPath id="clip-path-7" transform="translate(-190.6 -43.54)"><circle class="cls-1" cx="421.85" cy="443.86" r="88.87"/></clipPath><clipPath id="clip-path-8" transform="translate(-190.6 -43.54)"><circle class="cls-1" cx="277.26" cy="307.97" r="55.72"/></clipPath><clipPath id="clip-path-9" transform="translate(-190.6 -43.54)"><circle class="cls-1" cx="436.31" cy="248.02" r="80.37"/></clipPath><clipPath id="clip-path-10" transform="translate(-190.6 -43.54)"><circle class="cls-1" cx="639.18" cy="119.72" r="53.92"/></clipPath><clipPath id="clip-path-11" transform="translate(-190.6 -43.54)"><circle class="cls-1" cx="643.38" cy="338.44" r="119.53"/></clipPath></defs><title>Banner pic</title><g class="cls-2"><image width="640" height="360" transform="translate(460.18) scale(0.58)" xlink:href="confetti.jpeg"/></g><g class="cls-3"><image width="800" height="450" transform="translate(700 188.3) scale(0.34)" xlink:href="at%20water.png"/></g><g class="cls-4"><image width="665" height="250" transform="translate(503 319.27) scale(0.75)" xlink:href="concert.jpg"/></g><g class="cls-5"><image width="1280" height="857" transform="translate(255.41 4.18) scale(0.11)" xlink:href="optreden.jpg"/></g><g class="cls-6"><image width="534" height="356" transform="translate(532.55 517.54) scale(0.34)" xlink:href="linkinpark.jpeg"/></g><g class="cls-7"><image width="760" height="507" transform="translate(268.06 444.03) scale(0.38)" xlink:href="lightvest.jpg"/></g><g class="cls-8"><image width="650" height="433" transform="translate(99.21 311.45) scale(0.42)" xlink:href="at%20night.jpg"/></g><g class="cls-9"><image width="2048" height="1365" transform="translate(0 208.72) scale(0.08)" xlink:href="big%20boijpg.jpg"/></g><g class="cls-10"><image width="648" height="345" transform="translate(107.83 124.11) scale(0.47)" xlink:href="cool%20background.jpg"/></g><g class="cls-11"><image width="694" height="462" transform="translate(353.98 22.26) scale(0.24)" xlink:href="hoolahoop.jpeg"/></g><circle class="cls-12" cx="453.05" cy="295.17" r="119.53"/><g class="cls-13"><image width="665" height="250" transform="translate(178.69 196.8) scale(0.78)" xlink:href="Logo.png"/></g></svg>